<svg xmlns="http://www.w3.org/2000/svg" xmlns:xlink="http://www.w3.org/1999/xlink" viewBox="-15636 5065 93 51">
  <defs>
    <style>
      .cls-1 {
        clip-path: url(#clip-logo-stelo-admin);
      }

      .cls-2, .cls-4 {
        fill: #fff;
      }

      .cls-2 {
        font-size: 14px;
        font-family: Dosis-Medium, Dosis;
        font-weight: 500;
        letter-spacing: 0.04em;
      }

      .cls-3 {
        fill: #00d2a6;
      }
    </style>
    <clipPath id="clip-logo-stelo-admin">
      <rect x="-15636" y="5065" width="93" height="51"/>
    </clipPath>
  </defs>
  <g id="logo-stelo-admin" class="cls-1">
    <g id="Group_3475" data-name="Group 3475" transform="translate(-1092.27 -2266)">
      <text id="Admin_beta" data-name="Admin beta" class="cls-2" transform="translate(-14543.27 7378.18)"><tspan x="0" y="0">Admin </tspan><tspan class="cls-3" y="0">beta</tspan></text>
      <g id="Group_1391" data-name="Group 1391" transform="translate(-14563.73 7235.583)">
        <path id="Path_1335" data-name="Path 1335" class="cls-4" d="M243.876,126a6.908,6.908,0,0,1-8.582.916l-2.595,4.121a11.846,11.846,0,0,0,14.585-1.56Z" transform="translate(-173.234 -9.214)"/>
        <path id="Path_1330" data-name="Path 1330" class="cls-4" d="M212.119,26.793a11.853,11.853,0,0,0-10.108,18.316l21.471-9.175A11.871,11.871,0,0,0,212.119,26.793Zm-7.106,12.584a4.67,4.67,0,0,1-.034-.848,6.969,6.969,0,0,1,12.3-4.393Z" transform="translate(-146.158 73.169)"/>
        <path id="Path_1336" data-name="Path 1336" class="cls-4" d="M355.511,0V22.081l3.969,1.645-1.865,4.511L353.7,26.609a4.307,4.307,0,0,1-1.933-1.628A5.028,5.028,0,0,1,351,22.149V0Z" transform="translate(-271.473 95.417)"/>
        <path id="Path_1337" data-name="Path 1337" class="cls-3" d="M438.99,32.253c5.054,2.425,3.714,7.75,3.273,9.175v.136l4.392,2.1A11.848,11.848,0,0,0,428,29.777l3.273,3.6A6.976,6.976,0,0,1,438.99,32.253Z" transform="translate(-335.414 73.255)"/>
        <path id="Path_1338" data-name="Path 1338" class="cls-4" d="M413.911,77.731a6.98,6.98,0,0,1-3.273-9.311h0l-4.376-2.12a11.848,11.848,0,0,0,18.656,13.89l-3.29-3.6A7.01,7.01,0,0,1,413.911,77.731Z" transform="translate(-316.389 40.361)"/>
        <path id="Path_1331" data-name="Path 1331" class="cls-4" d="M150.245,8.972V4.528h-4.817V0H140.9V22.132a5.028,5.028,0,0,0,.763,2.832,4.4,4.4,0,0,0,1.933,1.628l3.918,1.628,1.866-4.511-3.969-1.645V8.972Z" transform="translate(-97.004 95.417)"/>
        <path id="Path_1332" data-name="Path 1332" class="cls-4" d="M18.055,39.618c-.509-.22-11.889-4.952-11.889-4.952a.017.017,0,0,1,.017-.017c1.323-3.222,5.512-3.935,8.6-2.035a6.783,6.783,0,0,1,2.595,2.951l4.172-2.357a11.067,11.067,0,0,0-2.035-2.8A12.187,12.187,0,0,0,11.135,26.8a11.586,11.586,0,0,0-4.342.8,11.523,11.523,0,0,0-2.273,1.17A9.478,9.478,0,0,0,.4,36.6v.339c3.07,1.289,18.859,7.9,20.046,8.429C20.734,43.213,20.141,40.5,18.055,39.618Z" transform="translate(19.668 73.166)"/>
        <path id="Path_1333" data-name="Path 1333" class="cls-4" d="M14.042,117.654a9.019,9.019,0,0,1-2.917.831A6.958,6.958,0,0,1,4.308,114.5L0,116.586a11.838,11.838,0,0,0,11.516,6.7,11.619,11.619,0,0,0,4.833-1.425Z" transform="translate(20 0.336)"/>
      </g>
    </g>
  </g>
</svg>
